<svg width="620" height="582" viewBox="0 0 620 582" fill="none" xmlns="http://www.w3.org/2000/svg">
<g clip-path="url(#clip0)">
<path fill-rule="evenodd" clip-rule="evenodd" d="M195.733 226.681L300.165 178.086V86.7222C288.03 84.9242 277.042 79.6258 269.125 71.7554L101.817 152.415C103.807 157.057 104.887 162.03 104.887 167.24C104.887 171.597 104.148 175.765 102.727 179.744L195.733 226.681ZM260.257 59.1094C258.037 54.1881 256.901 48.9736 256.903 43.7163C256.903 31.6387 262.758 20.6978 272.252 12.7881C281.746 4.87842 294.878 0 309.375 0C323.871 0 337.004 4.87842 346.497 12.7881C351.375 16.8469 355.242 21.6686 357.876 26.9762C360.51 32.2839 361.86 37.9729 361.847 43.7163C361.847 49.021 360.71 54.0889 358.663 58.7778L526.767 139.769C527.961 138.585 529.155 137.401 530.462 136.312C535.334 132.248 541.121 129.026 547.492 126.832C553.863 124.637 560.691 123.513 567.585 123.523C582.081 123.523 595.214 128.402 604.708 136.312C609.585 140.37 613.452 145.192 616.086 150.5C618.72 155.807 620.07 161.496 620.057 167.24C620.057 179.317 614.201 190.211 604.708 198.121C596.548 204.927 585.913 209.29 574.464 210.53V371.139C586.231 372.418 596.749 376.917 604.708 383.548C614.201 391.458 620.057 402.398 620.057 414.429C620.063 420.171 618.71 425.858 616.075 431.164C613.44 436.47 609.575 441.292 604.702 445.352C599.828 449.412 594.041 452.632 587.672 454.827C581.303 457.023 574.477 458.15 567.585 458.145C559.803 458.155 552.116 456.719 545.085 453.942C538.053 451.164 531.854 447.115 526.938 442.089L358.606 523.175C360.653 527.864 361.79 532.932 361.79 538.236C361.79 550.314 355.934 561.255 346.441 569.165C341.569 573.228 335.781 576.45 329.411 578.645C323.04 580.839 316.212 581.963 309.318 581.953C294.821 581.953 281.689 577.074 272.195 569.165C262.701 561.255 256.846 550.314 256.846 538.236C256.846 532.837 258.04 527.627 260.2 522.843L92.9488 442.278C88.0283 447.266 81.8397 451.281 74.8299 454.033C67.8202 456.785 60.1643 458.206 52.4152 458.192C37.9186 458.192 24.7864 453.314 15.2925 445.404C5.85549 437.495 -4.02893e-06 426.554 -4.02893e-06 414.476C-4.02893e-06 402.398 5.85549 391.505 15.3493 383.595C23.4161 376.868 33.8929 372.512 45.1953 371.186V210.482C33.8852 209.178 23.4007 204.818 15.3493 198.073C10.4682 194.027 6.59834 189.214 3.9637 183.913C1.32905 178.613 -0.0181543 172.929 -4.02893e-06 167.192C-4.02893e-06 155.115 5.85549 144.174 15.3493 136.264C20.221 132.2 26.0085 128.979 32.3792 126.784C38.7499 124.59 45.5783 123.465 52.472 123.476C60.2681 123.465 67.9687 124.905 75.0111 127.691C82.0535 130.477 88.2598 134.539 93.1762 139.58L260.257 59.1094ZM349.851 71.4712C341.884 79.565 330.683 84.9961 318.3 86.7695V178.086L422.505 228.386L518.296 182.254C516.193 177.565 515.113 172.45 515.113 167.192C515.113 162.077 516.193 157.104 518.126 152.557L349.851 71.4712V71.4712ZM558.432 210.246C547.829 208.709 538.057 204.473 530.462 198.121C529.382 197.221 528.359 196.321 527.392 195.326L431.772 241.363V339.784L527.79 385.963C528.643 385.158 529.496 384.353 530.405 383.595C538.008 377.251 547.776 373.017 558.375 371.47V210.246H558.432ZM518.24 429.396C516.193 424.754 515.113 419.733 515.113 414.523C515.113 409.029 516.307 403.772 518.581 398.894L425.689 354.23L318.3 406.235V495.231C330.683 497.004 341.884 502.435 349.851 510.529L518.24 429.396V429.396ZM269.125 510.197C277.042 502.327 288.03 497.028 300.165 495.231V405.809L192.379 353.709L100.908 397.71C103.466 402.872 104.944 408.556 104.944 414.523C104.944 419.828 103.807 424.896 101.761 429.585L269.125 510.197V510.197ZM61.17 371.376C72.1419 372.891 81.9769 377.296 89.5379 383.595C90.1064 384.069 90.618 384.543 91.1297 385.016L184.306 340.21V238.522L94.5975 193.242C93.0625 194.995 91.3571 196.605 89.5379 198.121C81.8299 204.544 71.9172 208.814 61.17 210.34V371.376ZM52.5289 195.8C52.7563 195.8 52.9837 195.752 53.2111 195.752H53.6659C62.3533 195.525 70.6089 192.544 76.7467 187.417C79.9398 184.764 82.4725 181.611 84.1993 178.141C85.9261 174.67 86.813 170.949 86.8091 167.192C86.8091 159.283 82.9433 152.131 76.7467 146.968C70.5502 141.806 61.9659 138.585 52.472 138.585C42.9782 138.585 34.3939 141.806 28.1973 146.968C25.0042 149.621 22.4716 152.773 20.7448 156.244C19.018 159.715 18.1311 163.435 18.135 167.192C18.135 175.102 22.0007 182.254 28.1973 187.417C31.3896 190.081 35.1828 192.193 39.3585 193.632C43.5342 195.071 48.0102 195.807 52.5289 195.8V195.8ZM333.593 518.107C330.408 515.447 326.625 513.337 322.459 511.898C318.293 510.459 313.827 509.72 309.318 509.724C299.824 509.724 291.24 512.944 285.043 518.107C278.847 523.27 274.981 530.421 274.981 538.331C274.981 546.241 278.847 553.393 285.043 558.555C291.24 563.718 299.824 566.939 309.318 566.939C318.812 566.939 327.396 563.718 333.593 558.555C339.789 553.393 343.655 546.241 343.655 538.331C343.655 530.421 339.846 523.27 333.593 518.107V518.107ZM333.593 23.4922C330.408 20.8319 326.625 18.7219 322.459 17.2832C318.293 15.8446 313.827 15.1056 309.318 15.1089C299.824 15.1089 291.24 18.3296 285.043 23.4922C278.847 28.6548 274.981 35.8066 274.981 43.7163C274.981 51.626 278.847 58.7778 285.043 63.9404C288.227 66.6007 292.011 68.7108 296.177 70.1494C300.343 71.5881 304.808 72.327 309.318 72.3237C318.812 72.3237 327.396 69.103 333.593 63.9404C336.786 61.2875 339.318 58.1352 341.045 54.6646C342.772 51.194 343.659 47.4733 343.655 43.7163C343.655 35.8066 339.846 28.6548 333.593 23.4922V23.4922ZM591.803 394.299C588.618 391.639 584.835 389.529 580.669 388.09C576.503 386.652 572.037 385.913 567.528 385.916C558.034 385.916 549.45 389.137 543.253 394.299C540.06 396.952 537.528 400.105 535.801 403.575C534.074 407.046 533.187 410.766 533.191 414.523C533.191 422.433 537.057 429.585 543.253 434.748C546.438 437.408 550.221 439.518 554.387 440.957C558.553 442.395 563.019 443.134 567.528 443.131C577.022 443.131 585.606 439.91 591.803 434.748C594.996 432.095 597.528 428.942 599.255 425.472C600.982 422.001 601.869 418.28 601.865 414.523C601.865 406.614 598.056 399.462 591.803 394.299ZM76.7467 394.299C70.5502 389.137 61.9659 385.916 52.472 385.916C42.9782 385.916 34.3939 389.137 28.1973 394.299C25.0042 396.952 22.4716 400.105 20.7448 403.575C19.018 407.046 18.1311 410.766 18.135 414.523C18.135 422.433 22.0007 429.585 28.1973 434.748C34.3939 439.91 42.9782 443.131 52.472 443.131C61.9659 443.131 70.5502 439.91 76.7467 434.748C79.9398 432.095 82.4725 428.942 84.1993 425.472C85.9261 422.001 86.813 418.28 86.8091 414.523C86.7908 406.94 83.1737 399.67 76.7467 394.299V394.299ZM536.943 180.123C537.398 180.501 537.739 180.975 538.08 181.449C538.421 181.922 538.648 182.396 538.876 182.917C540.183 184.527 541.661 186.043 543.253 187.417C546.438 190.077 550.221 192.187 554.387 193.625C558.553 195.064 563.019 195.803 567.528 195.8C577.022 195.8 585.606 192.579 591.803 187.417C594.996 184.764 597.528 181.611 599.255 178.141C600.982 174.67 601.869 170.949 601.865 167.192C601.865 159.283 597.999 152.131 591.803 146.968C588.618 144.308 584.835 142.198 580.669 140.759C576.503 139.321 572.037 138.582 567.528 138.585C558.034 138.585 549.45 141.806 543.253 146.968C540.06 149.621 537.528 152.773 535.801 156.244C534.074 159.715 533.187 163.435 533.191 167.192C533.248 171.881 534.612 176.239 536.943 180.123V180.123ZM201.304 338.6C202.596 339.757 203.446 341.208 203.748 342.768L301.132 390.463V296.305L201.304 246.81V338.6ZM414.83 248.089L318.129 296.352V390.558L414.83 342.958V248.089V248.089ZM309.204 189.406L214.834 236.438L309.716 284.038L401.869 237.432L309.204 189.406V189.406Z" fill="#FDC500"/>
</g>
<defs>
<clipPath id="clip0">
<rect width="620" height="582" fill="white"/>
</clipPath>
</defs>
</svg>
